<svg xmlns="http://www.w3.org/2000/svg" xml:space="preserve" version="1.1" style="shape-rendering:geometricPrecision; text-rendering:geometricPrecision; image-rendering:optimizeQuality; fill-rule:evenodd; clip-rule:evenodd" xmlns:xlink="http://www.w3.org/1999/xlink" xmlns:xodm="http://www.corel.com/coreldraw/odm/2003" viewBox="5046.73 3303.38 10000.02 10000.03">
 <defs>
  <style type="text/css">
   <![CDATA[
    .fil0 {fill:#0E8141}
    .fil1 {fill:#EFEA29}
   ]]>
  </style>
 </defs>
 <g id="Layer_x0020_1">
  <metadata id="CorelCorpID_0Corel-Layer"/>
  <path class="fil0" d="M5046.75 8166.68c0,495.82 18.7,849.41 142.53,1341.85 95.58,380.1 166.06,557.8 316.32,894.61 205.09,459.69 504.14,901.18 847.42,1271.72 91.07,98.3 196.04,223.54 300.94,304.54 71.05,54.86 199.41,182.13 326.28,279.19l542.82 365.37c657.03,388.38 1576.95,679.44 2357.67,679.44 547.58,0 850.44,-12.42 1386.72,-146.49 427.8,-106.94 531.55,-166.78 894.32,-316.61 254.12,-104.96 534.59,-292.99 765.84,-445.1 59.91,-39.41 115.98,-84.57 174.44,-128.3 58.92,-44.08 111.09,-91.86 167.37,-135.36 86.96,-67.19 394.83,-355.79 460.42,-438.01 132.74,-166.4 271.14,-300.73 404.84,-503.37l236.3 -369.17c70.13,-116.98 158.34,-275.01 209.84,-395.63 209.01,-489.55 342.38,-855.14 417.68,-1398.73 26.18,-189.01 42.24,-376.09 48.25,-561.61l0 -330.29c-16.9,-516.02 -113.29,-1021.46 -289.19,-1524.56 -93.13,-266.36 -237.97,-577.26 -386.51,-824.43l-364.94 -543.26c-45.93,-60.9 -88.8,-107.56 -135.35,-167.39 -43.8,-56.3 -101.85,-106.3 -143.82,-158.91l-259.85 -267.49c-435,-383.06 -870.28,-703.12 -1414.19,-929.56 -509.16,-211.98 -730.86,-274.7 -1300.1,-369.83 -153.68,-25.68 -330.44,-40.5 -513.08,-45.9l-326.15 0c-200.21,5.71 -395.34,21.63 -563.11,45.9 -491.07,71.05 -965.43,202.87 -1409.7,416.47 -72.8,34.99 -136.48,57.76 -204.34,98.39 -226.23,135.47 -305.35,164.18 -564.75,343.45 -599.38,414.23 -1080.31,962.46 -1453.03,1584.08 -212.95,355.15 -432.53,893.07 -527.45,1298.73 -72.57,310.08 -144.44,693.66 -144.44,1076.26z"/>
  <path class="fil1" d="M9793.82 4084.3c-864.87,54.22 -1677.99,364.3 -2315.12,861.03 -314.54,245.23 -541.34,471.06 -790.01,790.02 -604.5,775.35 -923.45,1807.35 -861.18,2827.93 136.76,2241.56 2060.33,4107.13 4476.05,3960.45 970.73,-58.95 1754.26,-409.48 2455.04,-975.56 160.15,-129.37 395.17,-368.43 528.65,-527.64 682.27,-813.77 1047.31,-1874.8 979.81,-2973.93 -59.79,-973.73 -409.55,-1752.03 -976.28,-2454.21 -43.31,-53.67 -83.19,-91.94 -124.68,-141.75 -21.54,-25.86 -39.34,-47.63 -62.15,-71.28 -22.25,-23.05 -47.4,-40.63 -69.96,-63.17 -85.02,-84.94 -167.82,-173.39 -270.53,-252.86 -386.83,-299.34 -667.05,-499.23 -1163.39,-692.94 -543.88,-212.26 -1155.97,-326.87 -1806.25,-286.09z"/>
 </g>
</svg>