<svg xmlns="http://www.w3.org/2000/svg" xml:space="preserve" version="1.1" style="shape-rendering:geometricPrecision; text-rendering:geometricPrecision; image-rendering:optimizeQuality; fill-rule:evenodd; clip-rule:evenodd" xmlns:xlink="http://www.w3.org/1999/xlink" xmlns:xodm="http://www.corel.com/coreldraw/odm/2003" viewBox="5043.57 3305.78 10000.03 10000.03">
 <defs>
  <style type="text/css">
   <![CDATA[
    .fil0 {fill:#040707}
    .fil1 {fill:#3953A2}
   ]]>
  </style>
 </defs>
 <g id="Layer_x0020_1">
  <metadata id="CorelCorpID_0Corel-Layer"/>
  <path class="fil0" d="M5043.57 8130.02l0 10.5c0.06,219.84 2,399.6 18.79,615.24 4.32,55.45 7.51,83.57 10.82,135.67 3.15,49.68 13.92,86.6 19.22,137.03 8.93,85.05 26.27,176.05 44.69,258.04 20.07,89.35 33.73,162.69 54.89,247.84 94.66,380.9 236.84,733.47 411.37,1082.78 65.03,130.14 146.33,259.7 223.37,382.1 190.12,302.1 417.62,582.55 669.49,834.41 101.69,101.69 197.46,194.32 308.19,287.51 57.19,48.12 107.81,89.3 167.12,135.62 291.32,227.45 598.72,407.18 930.12,573.79 390.82,196.48 939.15,365.04 1382.99,423.65 374.18,49.41 577.36,51.54 955.64,51.6l18.14 0c105.15,0 180.39,-15.47 273.51,-19.46 214.55,-9.2 429.13,-57.39 638.92,-103.27 201.28,-44.02 393.93,-109.51 580.51,-171.44 283.16,-94 564.35,-231.66 817.29,-383.89 273.94,-164.85 540.03,-348.29 778.06,-559.83 344.06,-305.77 647.21,-656.83 900.12,-1043.24 123.67,-188.95 221.96,-379.49 324.76,-583.43 114.17,-226.51 264.41,-626.89 316.64,-874.78 9.12,-43.28 19.83,-72.94 29.32,-117.16 45.36,-211.47 97.14,-428.13 106.43,-645.52 4.2,-98.32 19.6,-174.96 19.6,-283.14l0 -419.92c0,-228.03 -52.03,-577.51 -96.84,-801.6 -17.43,-87.12 -37.72,-166.4 -57.44,-245.29 -59.71,-238.85 -135.55,-450.94 -225.08,-673.35 -198.4,-492.84 -488.88,-935.14 -828.55,-1339.42 -16.43,-19.55 -16.5,-23.88 -34.64,-43.49 -28.72,-31.03 -50.44,-47.19 -75.81,-80.44 -107.84,-141.31 -462.26,-452.07 -626.34,-574.83 -201.65,-150.87 -408.77,-291.66 -630.32,-414.61 -36.51,-20.26 -67.53,-38.38 -100.63,-55.61l-406.96 -188.75c-37.6,-16.86 -64.02,-27.43 -104.64,-41.85 -336.16,-119.31 -717.23,-246.54 -1081.11,-286.07 -395.45,-42.96 -495.15,-49.61 -907.42,-49.61 -195.27,0 -370.91,30.03 -546.89,48.81 -81.89,8.74 -177.85,26.56 -258.04,44.7 -433.93,98.17 -631.49,160.94 -1032.41,325l-304.46 144.77c-516.52,289.12 -865.63,547.46 -1293.28,972.35 -99.88,99.24 -183.65,211.29 -278.38,317.32 -246.25,275.63 -549.48,784.26 -689.49,1126.92 -153.75,376.31 -237.03,620.45 -326,1031.41 -54.07,249.76 -95.27,550.86 -95.27,812.94z"/>
  <path class="fil1" d="M5816.66 8270.35l0 71.03c0,2290.35 1909.9,4192.71 4200.34,4192.71l53.27 0c2298.04,0 4201.59,-1903.78 4201.59,-4201.59l0 -53.27c0,-2289.88 -1901.81,-4200.34 -4192.71,-4200.34l-71.03 0c-2283.39,0 -4191.46,1907.62 -4191.46,4191.46z"/>
 </g>
</svg>