<svg xmlns="http://www.w3.org/2000/svg" xml:space="preserve" version="1.1" style="shape-rendering:geometricPrecision; text-rendering:geometricPrecision; image-rendering:optimizeQuality; fill-rule:evenodd; clip-rule:evenodd" xmlns:xlink="http://www.w3.org/1999/xlink" xmlns:xodm="http://www.corel.com/coreldraw/odm/2003" viewBox="5043.57 3305.78 10000.03 10000.03">
 <defs>
  <style type="text/css">
   <![CDATA[
    .fil0 {fill:#050807}
    .fil1 {fill:#3AB54A}
   ]]>
  </style>
 </defs>
 <g id="Layer_x0020_1">
  <metadata id="CorelCorpID_0Corel-Layer"/>
  <path class="fil0" d="M5043.57 8169.08l0 39.78c0.03,268.93 1.33,523.8 44.45,794.68 53.77,337.82 133.35,659.03 237.44,973.49 25.88,78.2 55.27,142.69 85.14,217.6l94.78 217.72c45.23,105.97 100.08,197.59 150.25,298.97 20.39,41.21 33.07,61.53 56.23,100.02 151.97,252.52 311.39,486.85 500.66,710.27 24.2,28.57 42.39,50.93 65.63,80.86 116.43,149.89 474.49,475.85 623.12,597.58l170.7 132.04c32.73,24.66 60.28,40.39 92.26,63.99 174.03,128.39 367.76,248.39 561.49,346.71 674.42,342.31 1413.25,563.01 2190.9,563.01 743.57,0 1138.73,-64.12 1790.83,-279.48 154.83,-51.14 296.42,-116.69 435.9,-179.34 390.62,-175.46 693.69,-385.92 1030.71,-639.2 327.15,-245.88 651,-605.52 895.8,-930.38l186.89 -272.09c40.21,-65.83 75.56,-122.14 114.93,-187.8 332.9,-555.21 525.3,-1172.28 627.44,-1813.97 23.52,-147.75 38.03,-304.4 44.45,-464.94l0 -397.97c-13.79,-362.94 -63.9,-725.09 -140.63,-1032.09 -142.82,-571.35 -406.97,-1201.99 -760.65,-1670.99l-191.12 -258.1c-113.98,-142.76 -236.14,-277.38 -365.12,-406.36l-394.87 -357.09c-31.57,-25.41 -53.96,-44.88 -86.69,-69.56l-175.96 -126.77c-235.94,-170.66 -501.79,-337.94 -771.46,-449.24 -39.03,-16.11 -61.17,-31.35 -98.96,-47.53 -584.05,-250.17 -1216.24,-417.1 -1877.82,-417.1l-39.78 0c-268.93,0.03 -523.8,1.33 -794.68,44.45 -183.94,29.28 -338.12,55.94 -507.35,98.12 -284.23,70.83 -532.74,161.49 -795.51,268.94 -37.3,15.25 -66.2,32.16 -107.41,48.84 -98.88,40.05 -200.08,103.5 -297.51,151.71 -164.96,81.62 -323.62,185.25 -468.25,293.46 -30.63,22.92 -56.77,37.65 -86.74,59.75 -31.67,23.37 -56.7,42.83 -89.18,67.07l-166.12 136.61c-372.24,315.35 -592.21,569.13 -874.47,951.71 -86.7,117.53 -162.14,242.54 -237.73,367.73 -412.25,682.72 -671.99,1591.42 -671.99,2374.89z"/>
  <path class="fil1" d="M9740.52 4090.11c-620.82,48.33 -1174.13,213.2 -1650.44,466.84 -403.36,214.79 -819.5,516.77 -1123.45,852.5 -21.89,24.17 -45.22,43.5 -66.37,68.82 -40.44,48.41 -80.25,89.68 -120.52,141.21 -39.32,50.32 -76.56,97.78 -114.95,146.62 -231.61,294.65 -422.38,660.19 -566.87,1020.63 -449.45,1121.24 -347.09,2415.59 196.9,3472.47 164.76,320.09 412.81,677.54 654.86,923.84 300.24,305.52 480.43,475.85 869.87,718.11 730.41,454.35 1622.25,689.6 2532.73,620.41 942.36,-71.6 1918.19,-481.93 2568.31,-1122.16 223.87,-220.46 290.89,-277.73 502.08,-553.55 229.97,-300.33 420.57,-653.88 566.8,-1021.29 210.56,-529.02 317.67,-1194.13 269.85,-1827.52 -47.61,-630.76 -215.7,-1155.27 -467.12,-1644.58 -183.62,-357.33 -494.03,-786.64 -782.26,-1058.23 -148.08,-139.53 -254.78,-237.74 -426.32,-367.63 -789.2,-597.62 -1811.78,-916.79 -2843.1,-836.49z"/>
 </g>
</svg>