<?xml version="1.0" encoding="UTF-8"?>
<!DOCTYPE svg PUBLIC "-//W3C//DTD SVG 1.1//EN" "http://www.w3.org/Graphics/SVG/1.1/DTD/svg11.dtd">
<!-- Creator: CorelDRAW 2019 (64-Bit) -->
<svg xmlns="http://www.w3.org/2000/svg" xml:space="preserve" width="100mm" height="100mm" version="1.1" style="shape-rendering:geometricPrecision; text-rendering:geometricPrecision; image-rendering:optimizeQuality; fill-rule:evenodd; clip-rule:evenodd"
viewBox="0 0 10000 10000"
 xmlns:xlink="http://www.w3.org/1999/xlink"
 xmlns:xodm="http://www.corel.com/coreldraw/odm/2003">
 <defs>
  <style type="text/css">
   <![CDATA[
    .fil0 {fill:#060707}
    .fil1 {fill:#DC2827}
   ]]>
  </style>
 </defs>
 <g id="Layer_x0020_1">
  <metadata id="CorelCorpID_0Corel-Layer"/>
  <g id="_1792626641600">
   <path class="fil0" d="M-3.18 4826.62c0,493.53 9.48,681.1 90.53,1159.47 59.27,349.89 221,818.34 374.84,1138.83 67.2,140.01 134.84,267.01 208.95,396.52 107.88,188.56 235.74,368.25 366.33,541.88 144.72,192.42 405.76,488.52 581.9,629.03 52.93,42.23 100.67,98.58 158.78,143.95 33.05,25.81 50.81,37.69 81.73,64.76 121.78,106.63 301.08,236 442.05,319.67 64.1,38.03 121.75,73.5 189.28,113.45 34.43,20.37 60.93,35.17 92.89,53.6 165.69,95.54 344.75,166.14 516.34,245.38 274.88,126.93 626.81,219.82 930.33,280.6 390.04,78.12 703.54,88.64 1102.77,88.64 92.86,0 200.98,-2.62 287.33,-15.4 97.89,-14.49 179.27,-11.3 273.42,-29.32 210.55,-40.3 420.51,-58.87 623.55,-128.4l350.21 -108.77c74.45,-24.64 145.23,-54.55 217.66,-85.08 141.88,-59.8 286.5,-119.72 422.35,-192.88 257.9,-138.88 504.06,-298.35 738.46,-472.48 388.98,-288.97 768.85,-701.84 1042.06,-1086.84 250.27,-352.68 485.86,-788.84 623.9,-1202.28 25.46,-76.26 52.83,-148.48 75.25,-227.48l120.5 -484.98c22.46,-111.85 51.77,-270.9 59.64,-389.57 2.52,-38.03 6.28,-99.94 12.12,-144.13 7.97,-60.38 13.55,-138.4 16.83,-225.94l0 -413.58c-6.26,-191.4 -20.85,-375.14 -43.2,-491.86l-43.78 -258.96c-77.76,-392.84 -178.35,-676.59 -321.66,-1035.75l-147.94 -311.05c-171.61,-344.4 -376.21,-605.83 -605.34,-908.33 -43.42,-57.32 -98.33,-104.55 -143.79,-158.94 -28.2,-33.74 -37.26,-46.35 -68.79,-77.69 -28.51,-28.35 -49.72,-49.7 -78.14,-78.12 -200.5,-200.5 -417.37,-398.09 -654.7,-556.24 -258.75,-172.44 -479.13,-307.21 -763.61,-447.32 -136.78,-67.37 -287.64,-120.33 -428.32,-177.15l-225.96 -76.77c-166.35,-42.8 -315.73,-93.45 -482.74,-122.74l-531.49 -73.98c-79.65,-8.37 -177.6,-14.53 -284.27,-17.97l-396.54 0c-188.69,6.08 -370.78,21.3 -503.2,48.01 -124.42,25.11 -252.58,40.53 -377.89,71.33 -152.11,37.39 -449.14,108.84 -593.85,167.88 -141.65,57.79 -289.69,112.09 -427.31,178.15l-666.6 378.32 -471.23 358.85c-247.77,199.95 -462.64,447.2 -663.98,693.44 -14.19,17.37 -21.98,22.21 -36.55,41.58 -10.76,14.31 -16.73,26.33 -27.56,40.79 -15.06,20.1 -21.44,24.16 -35.04,43.09l-302.13 459.59c-39.55,65.58 -71.89,126.07 -107.93,194.81 -105.77,201.72 -186.27,412.18 -276.36,622.07 -16.35,38.11 -23.67,74.72 -34.88,111.6 -58.16,191.33 -128.37,399.48 -163.27,598.46 -19.9,113.46 -53.43,278.39 -62.41,386.8 -11.88,143.33 -29.54,275.44 -29.54,429.45z"/>
   <path class="fil1" d="M4880.12 5139.51c56.51,37.49 147.44,121.75 200.9,169.2l3070.1 2644.97c74.73,-38.46 410.42,-501.27 444.87,-553.03 418.97,-629.46 725.17,-1479.07 725.17,-2281.06l0 -234.38c0,-707.99 -249,-1447.41 -532.77,-1965.65 -160.01,-292.22 -327.78,-518.59 -511.9,-737.93 -94.98,-113.14 -549.8,-579.3 -655.06,-606.98 -60.96,100.9 -1204.03,1556.67 -1372.24,1779.9 -226.71,300.86 -455.26,583.29 -685.78,886.29 -77.66,102.08 -671.26,855.37 -683.29,898.67z"/>
   <path class="fil1" d="M669.58 4943.81l0 107.42c0,934.65 337.16,1775.63 750.72,2385.1 114.35,168.52 220.51,293.86 343.32,437.85 124.95,146.51 253.23,262.13 396.8,394.17 174.18,160.19 743.77,566.51 956.4,625.72l-0.08 -7784.09c-201.75,51.86 -793.66,474.79 -951.53,621.62 -67.39,62.68 -138.53,121.14 -203.35,187.06 -60.8,61.82 -134.39,131.05 -190.52,200.05 -133.02,163.54 -221.05,253.73 -348.02,443.65 -415,620.71 -753.74,1444.62 -753.74,2381.45z"/>
   <path class="fil1" d="M3983.41 9206.94c255.57,84.98 726.64,119.8 1013.41,119.8 795.65,0 1560.66,-213.27 2224.97,-615.55 93.54,-56.65 285.78,-171.73 342.55,-232.23 -18.26,-32.46 -380.05,-337.88 -441.23,-388.07 -78.32,-64.25 -148.42,-128.71 -226,-193.95 -518.33,-435.83 -1043.52,-909.45 -1567.89,-1351.86 -448.46,-378.37 -889.02,-777.05 -1343.48,-1157.41l-2.33 3819.27z"/>
   <path class="fil1" d="M3985.52 796.78l-0.1 4220.47c18.97,-28.94 62.74,-76.3 87.36,-108.86 459.29,-607.58 943.27,-1213.58 1404.42,-1818.21 249.32,-326.88 493.31,-640.46 745.09,-964.01 125.13,-160.8 249.06,-318.68 374.66,-484.72 51.6,-68.23 354.79,-449.65 370.12,-486.71 -101.73,-92.98 -694.11,-290.45 -863.69,-335.69 -403.06,-107.51 -741.86,-143.89 -1165.15,-143.89 -221.26,0 -776.56,51.87 -952.71,121.62z"/>
  </g>
 </g>
</svg>
